<svg width="244" height="58" viewBox="0 0 244 58" fill="none" xmlns="http://www.w3.org/2000/svg">
<path d="M19.752 57.504C16.056 57.504 12.744 56.904 9.816 55.704C6.888 54.504 4.536 52.728 2.76 50.376C1.032 48.024 0.12 45.192 0.0240002 41.88H13.128C13.32 43.752 13.968 45.192 15.072 46.2C16.176 47.16 17.616 47.64 19.392 47.64C21.216 47.64 22.656 47.232 23.712 46.416C24.768 45.552 25.296 44.376 25.296 42.888C25.296 41.64 24.864 40.608 24 39.792C23.184 38.976 22.152 38.304 20.904 37.776C19.704 37.248 17.976 36.648 15.72 35.976C12.456 34.968 9.792 33.96 7.728 32.952C5.664 31.944 3.888 30.456 2.4 28.488C0.912 26.52 0.168 23.952 0.168 20.784C0.168 16.08 1.872 12.408 5.28 9.768C8.688 7.08 13.128 5.736 18.6 5.736C24.168 5.736 28.656 7.08 32.064 9.768C35.472 12.408 37.296 16.104 37.536 20.856H24.216C24.12 19.224 23.52 17.952 22.416 17.04C21.312 16.08 19.896 15.6 18.168 15.6C16.68 15.6 15.48 16.008 14.568 16.824C13.656 17.592 13.2 18.72 13.2 20.208C13.2 21.84 13.968 23.112 15.504 24.024C17.04 24.936 19.44 25.92 22.704 26.976C25.968 28.08 28.608 29.136 30.624 30.144C32.688 31.152 34.464 32.616 35.952 34.536C37.44 36.456 38.184 38.928 38.184 41.952C38.184 44.832 37.44 47.448 35.952 49.8C34.512 52.152 32.4 54.024 29.616 55.416C26.832 56.808 23.544 57.504 19.752 57.504ZM118.125 36.84C118.125 32.712 118.893 29.088 120.429 25.968C122.013 22.848 124.149 20.448 126.837 18.768C129.525 17.088 132.525 16.248 135.837 16.248C138.477 16.248 140.877 16.8 143.037 17.904C145.245 19.008 146.973 20.496 148.221 22.368V3.72H160.533V57H148.221V51.24C147.069 53.16 145.413 54.696 143.253 55.848C141.141 57 138.669 57.576 135.837 57.576C132.525 57.576 129.525 56.736 126.837 55.056C124.149 53.328 122.013 50.904 120.429 47.784C118.893 44.616 118.125 40.968 118.125 36.84ZM148.221 36.912C148.221 33.84 147.357 31.416 145.629 29.64C143.949 27.864 141.885 26.976 139.437 26.976C136.989 26.976 134.901 27.864 133.173 29.64C131.493 31.368 130.653 33.768 130.653 36.84C130.653 39.912 131.493 42.36 133.173 44.184C134.901 45.96 136.989 46.848 139.437 46.848C141.885 46.848 143.949 45.96 145.629 44.184C147.357 42.408 148.221 39.984 148.221 36.912Z" fill="#4285F4"/>
<path d="M43.3129 36.84C43.3129 32.712 44.0809 29.088 45.6169 25.968C47.2009 22.848 49.3369 20.448 52.0249 18.768C54.7129 17.088 57.7129 16.248 61.0249 16.248C63.8569 16.248 66.3289 16.824 68.4409 17.976C70.6009 19.128 72.2569 20.64 73.4089 22.512V16.824H85.7209V57H73.4089V51.312C72.2089 53.184 70.5289 54.696 68.3689 55.848C66.2569 57 63.7849 57.576 60.9529 57.576C57.6889 57.576 54.7129 56.736 52.0249 55.056C49.3369 53.328 47.2009 50.904 45.6169 47.784C44.0809 44.616 43.3129 40.968 43.3129 36.84ZM73.4089 36.912C73.4089 33.84 72.5449 31.416 70.8169 29.64C69.1369 27.864 67.0729 26.976 64.6249 26.976C62.1769 26.976 60.0889 27.864 58.3609 29.64C56.6809 31.368 55.8409 33.768 55.8409 36.84C55.8409 39.912 56.6809 42.36 58.3609 44.184C60.0889 45.96 62.1769 46.848 64.6249 46.848C67.0729 46.848 69.1369 45.96 70.8169 44.184C72.5449 42.408 73.4089 39.984 73.4089 36.912ZM230.62 23.52C232.06 21.312 233.86 19.584 236.02 18.336C238.18 17.04 240.58 16.392 243.22 16.392V29.424H239.836C236.764 29.424 234.46 30.096 232.924 31.44C231.388 32.736 230.62 35.04 230.62 38.352V57H218.308V16.824H230.62V23.52Z" fill="#EA4335"/>
<path d="M114.788 27.048H108.164V57H95.8521V27.048H91.3881V16.824H95.8521V15.672C95.8521 10.728 97.2681 6.984 100.1 4.44C102.932 1.848 107.084 0.551997 112.556 0.551997C113.468 0.551997 114.14 0.575997 114.572 0.623996V11.064C112.22 10.92 110.564 11.256 109.604 12.072C108.644 12.888 108.164 14.352 108.164 16.464V16.824H114.788V27.048Z" fill="#FBBC05"/>
<path d="M166.993 36.84C166.993 32.712 167.761 29.088 169.297 25.968C170.881 22.848 173.017 20.448 175.705 18.768C178.393 17.088 181.393 16.248 184.705 16.248C187.537 16.248 190.009 16.824 192.121 17.976C194.281 19.128 195.937 20.64 197.089 22.512V16.824H209.401V57H197.089V51.312C195.889 53.184 194.209 54.696 192.049 55.848C189.937 57 187.465 57.576 184.633 57.576C181.369 57.576 178.393 56.736 175.705 55.056C173.017 53.328 170.881 50.904 169.297 47.784C167.761 44.616 166.993 40.968 166.993 36.84ZM197.089 36.912C197.089 33.84 196.225 31.416 194.497 29.64C192.817 27.864 190.753 26.976 188.305 26.976C185.857 26.976 183.769 27.864 182.041 29.64C180.361 31.368 179.521 33.768 179.521 36.84C179.521 39.912 180.361 42.36 182.041 44.184C183.769 45.96 185.857 46.848 188.305 46.848C190.753 46.848 192.817 45.96 194.497 44.184C196.225 42.408 197.089 39.984 197.089 36.912Z" fill="#34A853"/>
</svg>
